<?xml version="1.0" standalone="no"?>
<!DOCTYPE svg PUBLIC "-//W3C//DTD SVG 20010904//EN"
 "http://www.w3.org/TR/2001/REC-SVG-20010904/DTD/svg10.dtd">
<svg version="1.0" xmlns="http://www.w3.org/2000/svg"
 width="612.000000pt" height="408.000000pt" viewBox="0 0 612.000000 408.000000"
 preserveAspectRatio="xMidYMid meet">

<g transform="translate(0.000000,408.000000) scale(0.100000,-0.100000)"
fill="#000000" stroke="none">
<path d="M0 2040 l0 -2040 1323 2 1322 3 3 23 c2 12 6 22 10 22 4 0 7 12 8 28
0 15 3 38 6 52 3 14 8 32 10 40 2 9 -4 14 -15 14 -14 -2 -15 1 -6 12 6 8 14
12 18 10 4 -3 8 5 8 17 2 17 0 19 -7 7 -6 -9 -10 -10 -10 -3 0 6 5 15 10 18 7
4 6 13 -1 26 -10 19 -9 20 11 9 19 -10 20 -10 12 7 -7 12 -7 25 0 38 11 20 11
20 -13 0 -13 -11 -18 -13 -11 -5 16 18 16 33 0 24 -7 -4 -4 2 6 14 21 25 36
31 16 7 -9 -10 -9 -15 -1 -15 11 0 12 3 15 52 0 14 4 30 9 34 14 15 7 26 -10
13 -14 -12 -14 -10 2 21 l18 35 -21 -19 -21 -19 20 42 c11 24 18 50 16 59 -4
14 -5 13 -6 -3 -1 -16 -3 -17 -10 -6 -9 14 5 71 17 71 4 0 8 19 8 43 1 23 -1
32 -3 20 -2 -13 -9 -23 -14 -23 -6 0 -7 -5 -3 -12 5 -7 3 -8 -6 -3 -9 5 -10 2
-6 -13 4 -11 2 -23 -3 -27 -7 -4 -8 1 -4 11 4 11 3 15 -5 10 -6 -4 0 17 13 46
13 29 29 52 35 50 7 -1 9 5 6 15 -8 25 9 51 17 28 4 -9 3 -14 -1 -11 -5 3 -9
-14 -9 -37 0 -23 -2 -78 -3 -122 -2 -44 0 -92 5 -108 4 -16 3 -27 -3 -27 -5 0
-8 -15 -7 -32 2 -18 8 -32 14 -31 7 2 7 -5 -1 -22 -6 -13 -15 -22 -21 -18 -6
3 -7 1 -3 -6 4 -6 2 -19 -6 -28 -7 -9 -8 -14 -2 -10 7 4 14 0 18 -8 3 -8 0
-17 -6 -21 -7 -5 -8 -2 -3 6 5 8 4 11 -3 6 -6 -4 -9 -13 -6 -20 3 -8 -1 -33
-9 -57 -8 -24 -13 -60 -12 -81 2 -21 0 -38 -5 -38 -9 0 -20 -91 -12 -104 3 -5
9 -1 13 10 7 16 8 17 8 2 1 -12 8 -17 21 -15 23 4 39 17 20 17 -7 0 -11 2 -8
5 9 9 38 -7 32 -17 -4 -6 -1 -9 7 -6 22 7 23 40 3 56 -18 13 -18 14 1 12 32
-4 35 -1 26 23 -6 15 -4 29 5 42 11 15 11 20 1 27 -9 6 -9 8 1 8 6 0 12 11 12
24 0 13 6 27 13 29 9 4 9 6 -1 6 -7 1 -10 6 -7 11 4 6 2 17 -5 25 -8 10 -8 13
2 11 7 -1 18 -5 25 -9 7 -5 16 0 23 12 10 20 -3 40 -15 21 -3 -5 -17 -9 -30
-8 -13 1 -21 6 -19 10 3 5 9 6 14 3 5 -3 12 0 16 6 4 7 3 9 -2 6 -6 -3 -16 -1
-24 5 -12 8 -12 9 3 4 18 -6 24 9 7 19 -5 3 -10 11 -10 16 0 6 4 8 9 4 6 -3
15 3 20 13 7 14 18 18 38 15 19 -3 24 -2 15 5 -13 9 -6 42 12 54 7 4 4 19 -7
44 -13 27 -15 40 -7 48 8 8 9 6 5 -9 l-7 -20 17 20 c17 20 17 20 10 -4 -6 -21
-4 -23 13 -19 13 4 23 0 26 -9 9 -23 7 -45 -4 -38 -5 3 -7 12 -3 20 3 8 0 15
-6 15 -16 0 -13 -46 4 -60 8 -7 15 -18 15 -24 0 -7 -4 -6 -9 2 -5 9 -10 0 -14
-27 -6 -47 -30 -76 -54 -66 -15 5 -15 7 -3 15 12 8 12 10 1 10 -8 0 -11 6 -7
16 3 8 2 13 -3 9 -5 -3 -12 1 -14 7 -3 7 -4 -3 -1 -22 3 -28 2 -30 -4 -10 -5
17 -10 21 -15 13 -15 -25 11 -51 47 -49 27 1 36 -3 38 -17 5 -32 23 -18 23 18
0 28 4 35 20 35 11 0 15 4 10 8 -14 9 -13 33 0 30 5 -2 9 -6 8 -10 -2 -5 2 -8
7 -8 6 0 10 11 10 24 0 13 6 27 13 30 10 5 10 7 0 12 -20 9 -16 37 3 30 11 -4
15 -2 11 7 -6 15 12 41 33 50 11 4 9 6 -6 6 -12 1 -27 -6 -34 -14 -7 -9 -15
-13 -18 -10 -10 9 32 34 57 35 23 0 24 1 6 14 -11 8 -16 20 -12 29 3 9 2 19
-3 22 -5 3 -9 17 -8 30 3 29 12 23 13 -8 0 -14 5 -21 15 -19 12 3 13 1 3 -9
-7 -7 -13 -18 -13 -23 0 -6 7 0 16 12 15 22 11 47 -7 37 -14 -9 -11 8 7 33 8
12 20 19 26 16 7 -5 8 -2 4 5 -5 7 -15 10 -23 6 -13 -4 -14 -3 -3 10 10 12 16
13 29 3 14 -11 14 -11 5 2 -11 16 -11 22 0 62 5 16 12 28 16 28 4 0 7 8 7 18
0 35 3 43 14 36 8 -4 7 0 -1 15 -6 13 -16 19 -23 14 -9 -5 -9 -3 -1 8 19 23
32 84 23 102 -5 8 -6 23 -3 31 6 15 8 15 21 -1 13 -16 14 -16 9 -1 -2 9 2 19
10 22 8 3 14 15 14 26 0 14 6 20 23 19 16 0 18 -2 7 -7 -17 -8 -24 -42 -8 -39
6 1 14 -9 19 -23 8 -23 8 -24 -6 -6 -14 18 -14 17 -12 -12 1 -16 5 -28 10 -25
15 9 6 -18 -12 -36 -14 -14 -16 -21 -8 -25 7 -2 4 -5 -5 -5 -10 -1 -18 -5 -18
-10 0 -6 9 -8 20 -6 13 3 20 -2 20 -12 0 -13 -3 -13 -15 -3 -11 9 -15 9 -15 1
0 -7 -5 -9 -10 -6 -6 4 -6 -4 1 -19 8 -16 17 -23 28 -19 13 4 14 3 1 -5 -10
-8 -18 -8 -27 0 -10 8 -13 6 -13 -5 0 -9 8 -18 18 -20 15 -4 15 -5 1 -6 -17
-1 -18 -5 -33 -119 -2 -18 -1 -30 3 -27 5 2 6 -7 3 -20 -2 -14 -8 -22 -12 -20
-5 3 -11 1 -15 -5 -3 -5 1 -10 9 -10 9 0 16 -4 16 -10 0 -5 -6 -10 -12 -10 -7
0 -20 -5 -28 -10 -13 -9 -13 -11 0 -20 12 -8 11 -10 -7 -10 -25 0 -27 -7 -13
-44 7 -20 6 -24 -5 -19 -16 5 -20 -10 -16 -59 2 -21 -2 -28 -16 -28 -15 0 -16
-2 -3 -10 11 -7 11 -10 2 -10 -7 0 -10 -4 -7 -10 3 -5 1 -10 -4 -10 -6 0 -11
-5 -11 -11 0 -6 9 -9 20 -6 11 3 18 1 14 -4 -3 -5 -12 -9 -20 -9 -8 0 -14 -10
-15 -22 0 -22 -1 -22 -9 -3 -8 20 -11 18 -14 -7 0 -7 -6 -13 -13 -13 -6 0 -15
-3 -19 -8 -4 -4 2 -7 14 -7 15 0 20 -5 16 -15 -4 -8 -10 -15 -15 -15 -5 0 -18
-9 -29 -20 -16 -16 -17 -20 -5 -20 17 0 19 -9 5 -30 -9 -13 -11 -13 -21 0 -9
12 -10 11 -6 -6 4 -17 1 -20 -14 -17 -15 4 -19 0 -19 -23 0 -23 -2 -26 -10
-14 -8 12 -10 9 -10 -12 0 -16 -4 -28 -10 -28 -5 0 -10 -5 -10 -11 0 -6 7 -9
15 -5 8 3 15 1 15 -4 0 -6 -11 -10 -25 -10 -14 0 -25 -4 -25 -9 0 -6 317 -10
806 -11 l807 -1 -7 70 c-5 48 -4 71 5 76 8 5 9 1 5 -13 -5 -14 -1 -21 14 -25
15 -4 20 -1 18 11 -2 13 3 16 21 14 32 -5 81 17 81 37 0 9 -4 31 -10 50 -8 31
-6 41 27 94 32 52 37 57 46 41 6 -11 21 -31 33 -47 16 -18 25 -47 30 -87 5
-47 13 -67 40 -99 19 -21 34 -44 34 -49 0 -23 71 -25 92 -4 7 7 16 12 21 12 5
0 22 9 38 21 25 17 29 18 29 4 0 -9 5 -13 11 -10 6 4 8 13 5 21 -6 16 6 26 20
16 5 -4 15 -20 22 -36 11 -24 10 -32 -3 -52 -8 -13 -15 -28 -15 -34 0 -7 174
-10 540 -10 l540 0 0 2040 0 2040 -645 0 c-390 0 -645 -4 -645 -9 0 -5 11 -18
25 -29 27 -22 32 -38 13 -45 -8 -2 -9 -8 -4 -13 5 -5 11 -4 13 4 7 19 23 14
45 -13 23 -29 38 -32 38 -8 0 13 7 10 30 -12 24 -23 30 -37 30 -72 0 -24 5
-43 10 -43 6 0 10 18 10 40 0 29 4 40 15 40 11 0 15 -12 15 -48 0 -35 5 -54
18 -65 25 -23 32 -21 32 8 0 16 6 25 15 25 11 0 15 -11 15 -40 0 -29 4 -40 15
-40 11 0 15 -12 15 -50 0 -32 4 -50 12 -50 7 0 25 -12 40 -27 22 -21 28 -36
28 -70 0 -39 2 -43 25 -43 23 0 25 -3 25 -49 0 -41 4 -53 25 -69 14 -11 25
-25 25 -31 0 -6 7 -11 15 -11 11 0 15 -12 15 -49 0 -41 4 -53 25 -69 21 -17
25 -28 25 -71 0 -39 4 -51 15 -51 11 0 15 -11 15 -40 0 -29 4 -40 15 -40 11 0
15 -11 15 -40 0 -22 5 -40 10 -40 6 0 10 -18 10 -40 0 -38 2 -40 30 -40 28 0
30 -2 30 -40 0 -22 5 -40 10 -40 6 0 10 -18 10 -40 0 -29 4 -40 15 -40 11 0
15 -11 15 -40 0 -29 4 -40 15 -40 13 0 15 -20 15 -120 0 -66 4 -120 9 -120 4
0 11 -71 13 -157 4 -102 10 -159 17 -161 8 -3 10 -75 9 -245 l-3 -242 -2 203
c-2 123 -7 202 -13 202 -6 0 -10 -118 -10 -320 0 -219 -3 -320 -11 -320 -5 0
-7 -4 -4 -10 3 -5 16 -10 27 -10 12 0 18 -3 14 -7 -10 -10 -78 -35 -106 -38
-36 -4 -37 -4 -20 -16 12 -8 10 -9 -7 -4 -14 4 -23 2 -23 -4 0 -17 -37 -13
-44 4 -3 9 -11 15 -18 14 -7 -1 -22 -1 -33 0 -19 2 -19 3 3 13 27 14 29 35 2
43 -11 4 -18 11 -15 16 3 5 -2 6 -11 2 -12 -4 -15 -3 -10 5 4 7 1 12 -6 12 -8
0 -30 16 -50 36 -33 32 -37 41 -39 92 -4 141 -2 172 15 247 39 177 45 231 31
282 -23 80 -33 109 -34 93 -1 -8 -10 3 -20 25 -18 39 -18 40 0 56 22 20 15 29
-20 29 -19 0 -22 -3 -12 -9 8 -5 10 -14 6 -21 -6 -9 -12 -6 -21 11 -7 13 -13
18 -14 10 0 -11 -5 -10 -20 4 -26 23 -26 45 1 45 11 0 18 4 14 10 -3 5 -12 7
-20 3 -12 -4 -15 3 -15 30 0 22 -6 37 -15 41 -17 6 -21 46 -4 46 6 0 9 -6 6
-14 -5 -11 24 -46 38 -46 13 0 3 40 -12 49 -14 8 -15 12 -4 25 8 9 9 16 3 16
-7 0 -9 20 -7 52 4 50 -8 84 -25 73 -5 -3 -12 0 -16 6 -4 8 -3 9 4 5 7 -4 14
4 18 21 3 15 7 33 9 38 4 14 -14 45 -26 45 -6 0 -7 -4 -4 -10 3 -5 1 -10 -4
-10 -17 0 -13 37 5 44 13 5 13 8 2 19 -7 7 -21 16 -32 20 -13 5 -17 14 -14 31
3 17 -1 27 -13 33 -17 7 -17 11 -6 33 18 33 11 56 -10 38 -13 -10 -15 -9 -12
7 3 11 11 20 18 20 8 0 16 6 19 14 3 10 0 12 -11 8 -20 -8 -29 3 -16 20 9 10
8 13 -4 13 -10 0 -18 12 -23 34 -3 19 -19 49 -35 67 -16 18 -29 35 -29 37 0 3
3 3 6 -1 3 -3 17 4 30 16 23 20 24 22 8 34 -10 7 -20 9 -23 4 -4 -5 -17 -4
-31 2 l-25 10 24 6 c14 4 26 12 29 19 5 15 -10 15 -43 0 -22 -10 -27 -9 -39 8
-8 10 -18 16 -22 12 -4 -5 1 -16 10 -27 10 -11 13 -22 8 -25 -11 -7 -35 26
-47 63 -8 25 -1 26 47 6 25 -10 24 19 -1 44 -22 22 -22 61 -1 86 7 8 10 19 6
23 -4 4 -14 -2 -22 -12 -12 -17 -17 -18 -38 -6 -14 7 -25 16 -24 19 3 26 -7
40 -37 57 -19 10 -35 20 -35 22 0 1 9 13 20 25 28 30 5 36 -26 6 l-24 -22 0
22 c0 12 -4 19 -10 16 -5 -3 -10 -2 -10 4 0 5 -3 16 -6 24 -3 10 2 17 13 20
16 4 15 6 -4 12 -13 4 -23 13 -23 21 0 18 -37 38 -45 24 -9 -15 -25 -2 -25 21
0 27 -38 58 -70 59 -14 0 -33 9 -43 20 -9 11 -22 21 -29 21 -46 5 -70 4 -74
-3 -3 -4 13 -8 35 -8 23 0 41 -5 41 -10 0 -6 -23 -10 -55 -9 -30 1 -60 -3 -67
-8 -7 -6 -24 -14 -37 -18 -18 -5 -22 -4 -16 5 6 10 -1 12 -30 7 -29 -5 -44 -2
-63 13 -13 11 -36 20 -51 20 l-26 -1 30 -13 c52 -23 71 -66 29 -66 -8 0 -13
-3 -11 -7 7 -12 -126 -4 -137 7 -6 6 -18 10 -27 10 -9 0 -21 6 -27 13 -13 15
-89 14 -151 -3 -42 -11 -89 -37 -140 -78 -25 -20 -53 -19 -70 2 -12 15 26 71
47 71 11 0 14 43 15 213 l2 212 -1867 0 -1868 0 0 -2040z m4625 1620 c10 -11
14 -20 8 -20 -5 0 -18 9 -28 20 -10 11 -14 20 -8 20 5 0 18 -9 28 -20z m-295
6 c0 -11 -19 -15 -25 -6 -3 5 1 10 9 10 9 0 16 -2 16 -4z m261 -22 l24 -27
-33 17 c-18 9 -30 21 -27 26 8 13 8 13 36 -16z m249 -234 c0 -5 -4 -10 -10
-10 -5 0 -10 5 -10 10 0 6 5 10 10 10 6 0 10 -4 10 -10z m-1623 -106 c-3 -3
-12 -4 -19 -1 -8 3 -5 6 6 6 11 1 17 -2 13 -5z m951 -37 c10 -10 23 -17 29
-17 6 0 16 -7 23 -15 7 -9 15 -13 18 -10 3 3 16 -2 29 -10 13 -9 23 -13 23
-11 0 3 20 -16 45 -42 25 -25 45 -50 45 -54 0 -4 6 -8 14 -8 13 0 33 -53 27
-74 -1 -6 2 -20 8 -33 6 -13 16 -35 22 -50 6 -16 18 -41 27 -57 18 -35 17
-141 -2 -171 -7 -11 -13 -51 -15 -89 -3 -92 -62 -274 -81 -251 -7 8 -18 15
-24 15 -12 0 -55 31 -90 65 -22 21 -63 45 -77 45 -5 0 -9 -7 -9 -15 0 -8 -5
-15 -11 -15 -7 0 27 -37 74 -81 62 -58 91 -94 103 -126 17 -44 17 -46 -2 -59
-10 -7 -25 -18 -32 -24 -7 -6 -17 -8 -22 -5 -6 3 -10 1 -10 -4 0 -6 -4 -11 -9
-11 -6 0 -13 21 -16 48 -10 80 -14 89 -51 133 -44 53 -69 67 -131 75 l-48 7
23 -22 c12 -12 22 -26 22 -31 0 -6 5 -10 11 -10 16 0 68 -61 75 -87 3 -13 10
-20 15 -17 5 3 9 -4 9 -14 0 -11 7 -23 16 -26 8 -3 12 -10 9 -16 -3 -5 1 -10
9 -10 9 0 16 -8 16 -17 0 -14 2 -15 9 -5 7 11 9 11 14 -2 6 -16 -116 -166
-135 -166 -5 0 -7 -4 -4 -9 9 -14 -58 -67 -124 -101 -77 -39 -145 -48 -418
-55 -215 -6 -224 -6 -266 16 -86 42 -185 153 -187 209 -1 17 -4 11 -11 -17
-12 -54 -26 -55 -34 -3 -4 22 -11 40 -16 40 -5 0 -8 17 -6 38 2 22 8 36 15 35
8 -2 10 4 6 14 -4 11 -3 14 6 9 7 -5 16 -18 20 -30 6 -14 9 5 10 56 1 43 6 89
11 104 14 37 12 52 -5 30 -13 -17 -14 -5 -14 105 1 76 4 116 9 104 7 -16 9
-17 9 -3 1 9 -3 20 -9 23 -5 3 -10 11 -10 16 0 6 4 8 10 4 5 -3 14 13 21 35
11 37 29 55 29 29 0 -6 7 -4 15 5 8 8 15 21 15 28 -1 8 -6 6 -15 -6 -8 -11
-15 -15 -15 -10 0 6 6 18 13 28 12 17 14 17 20 3 7 -19 29 -14 66 15 27 21 73
26 53 6 -19 -19 -14 -33 13 -36 18 -1 29 6 40 28 9 17 12 30 8 30 -5 0 1 7 12
16 13 10 16 17 9 22 -6 4 -10 26 -9 50 2 46 20 68 67 78 15 4 25 11 22 16 -3
5 -12 7 -20 4 -8 -3 -14 -1 -14 3 0 5 7 11 15 15 8 3 15 13 15 23 0 12 15 24
43 35 47 20 78 16 92 -11 29 -54 65 -133 65 -140 0 -10 30 -25 43 -23 4 1 12
-9 18 -22 6 -13 22 -29 35 -36 30 -16 73 -81 81 -122 5 -25 8 -28 17 -17 6 8
17 15 25 17 12 2 11 -1 -1 -20 -9 -13 -24 -22 -33 -21 -13 1 -15 -4 -11 -22 5
-20 3 -22 -17 -18 -12 3 -19 2 -15 -2 4 -5 3 -14 -3 -22 -14 -17 5 -17 66 -2
35 9 47 18 60 46 18 38 14 63 -10 63 -8 0 -15 5 -15 10 0 6 -5 9 -11 8 -6 -2
-12 15 -14 37 -4 50 -22 98 -34 91 -5 -4 -7 3 -4 13 3 12 -8 33 -31 58 -20 22
-33 43 -29 47 3 3 -1 6 -10 6 -9 0 -21 9 -27 20 -6 11 -16 17 -25 14 -10 -4
-15 0 -15 10 0 15 -2 15 -22 2 -22 -15 -23 -14 -23 21 0 25 -6 39 -21 49 -20
14 -21 13 -17 -13 4 -24 2 -25 -7 -10 -6 9 -19 17 -28 17 -13 1 -9 8 16 30 17
16 32 34 32 40 0 5 9 10 20 10 21 0 29 -33 10 -45 -21 -13 -9 -25 24 -25 25 0
44 -9 68 -30 18 -17 42 -33 53 -36 22 -6 32 -22 105 -172 48 -98 71 -125 90
-106 14 15 -9 115 -43 184 -35 70 -113 157 -149 164 -13 3 -41 8 -63 11 -32 6
-36 9 -22 16 9 6 17 16 17 22 0 9 11 12 35 9 26 -3 35 0 35 11 0 8 16 24 35
36 20 11 38 29 42 38 8 22 28 43 41 43 6 0 12 6 15 13 16 43 175 60 215 24z
m747 14 c3 -6 -3 -15 -14 -21 -14 -7 -22 -7 -27 2 -5 7 -3 8 6 3 10 -6 12 -4
7 8 -7 18 17 25 28 8z m115 -160 c0 -16 -28 -20 -34 -5 -4 9 1 14 14 14 11 0
20 -4 20 -9z m-1677 -98 c-6 -40 -16 -42 -32 -7 -10 22 -9 28 6 39 24 18 32 7
26 -32z m-583 -3 c13 -8 13 -10 -2 -10 -9 0 -20 5 -23 10 -8 13 5 13 25 0z
m502 -42 c-3 -32 0 -45 14 -55 19 -14 16 -27 -5 -14 -14 9 -34 87 -26 102 13
21 20 7 17 -33z m1798 -6 c0 -29 -14 -20 -25 15 -5 18 -3 22 9 17 9 -3 16 -18
16 -32z m-2320 -16 c0 -2 -7 -6 -15 -10 -8 -3 -15 -1 -15 4 0 6 7 10 15 10 8
0 15 -2 15 -4z m28 -31 c-3 -3 -9 2 -12 12 -6 14 -5 15 5 6 7 -7 10 -15 7 -18z
m-20 -13 c2 -7 -2 -10 -12 -6 -9 3 -16 2 -16 -4 0 -6 5 -12 12 -14 8 -3 7 -6
-4 -10 -14 -6 -16 2 -9 45 2 12 24 3 29 -11z m2332 8 c0 -5 -4 -10 -10 -10 -5
0 -10 5 -10 10 0 6 5 10 10 10 6 0 10 -4 10 -10z m-1878 -182 c6 6 16 12 22
12 5 0 1 -8 -10 -18 -14 -14 -23 -16 -36 -8 -9 5 -14 14 -11 19 3 5 9 3 14 -4
6 -11 11 -11 21 -1z m637 -14 c3 -16 1 -17 -13 -5 -19 16 -21 34 -3 29 6 -3
14 -13 16 -24z m-1314 -54 c-9 -41 -17 -33 -9 9 4 17 9 30 11 27 3 -2 2 -19
-2 -36z m235 -70 c0 -5 -2 -10 -4 -10 -3 0 -8 5 -11 10 -3 6 -1 10 4 10 6 0
11 -4 11 -10z m-129 -27 c-12 -20 -14 -14 -5 12 4 9 9 14 11 11 3 -2 0 -13 -6
-23z m-663 -20 c-10 -2 -26 -2 -35 0 -10 3 -2 5 17 5 19 0 27 -2 18 -5z m270
0 c-10 -2 -26 -2 -35 0 -10 3 -2 5 17 5 19 0 27 -2 18 -5z m86 -13 c-10 -4
-23 -5 -28 -2 -13 7 16 21 32 14 13 -4 12 -7 -4 -12z m100 5 c-4 -8 -12 -15
-20 -15 -17 0 -18 17 -1 23 22 9 27 7 21 -8z m-247 -1 c-3 -3 -12 -4 -19 -1
-8 3 -5 6 6 6 11 1 17 -2 13 -5z m-214 -11 c-7 -2 -19 -2 -25 0 -7 3 -2 5 12
5 14 0 19 -2 13 -5z m-198 -13 c-27 -12 -43 -12 -25 0 8 5 22 9 30 9 10 0 8
-3 -5 -9z m145 0 c0 -12 -17 -12 -45 0 -17 7 -15 9 13 9 17 1 32 -3 32 -9z
m107 4 c-3 -3 -12 -4 -19 -1 -8 3 -5 6 6 6 11 1 17 -2 13 -5z m117 -5 c-6 -11
-52 -11 -79 1 -14 6 -5 8 32 8 29 0 50 -4 47 -9z m117 -7 c-7 -2 -18 1 -23 6
-8 8 -4 9 13 5 13 -4 18 -8 10 -11z m-424 2 c-3 -3 -12 -4 -19 -1 -8 3 -5 6 6
6 11 1 17 -2 13 -5z m356 -1 c-7 -2 -19 -2 -25 0 -7 3 -2 5 12 5 14 0 19 -2
13 -5z m3011 -39 c3 -8 2 -12 -4 -9 -6 3 -10 10 -10 16 0 14 7 11 14 -7z m11
-44 c3 -5 1 -10 -4 -10 -6 0 -11 5 -11 10 0 6 2 10 4 10 3 0 8 -4 11 -10z
m-3146 -111 c6 9 11 10 15 2 4 -6 6 -11 4 -11 -2 0 -18 -4 -35 -9 -30 -9 -31
-8 -20 9 8 14 13 16 19 7 6 -9 10 -9 17 2z m504 -53 c22 -27 19 -80 -7 -84
-10 -2 -32 10 -53 30 -46 44 -59 68 -42 78 21 13 83 -1 102 -24z m1627 24 c0
-5 -4 -10 -10 -10 -5 0 -10 5 -10 10 0 6 5 10 10 10 6 0 10 -4 10 -10z m-2182
-45 c0 -20 -3 -23 -14 -14 -10 8 -11 14 -1 24 7 8 13 14 13 15 1 0 2 -11 2
-25z m75 -5 c-4 -14 0 -20 13 -20 9 0 14 -3 11 -7 -4 -3 -3 -11 3 -18 6 -7 0
-14 -19 -22 -27 -10 -28 -9 -25 23 1 19 -2 34 -7 34 -5 0 -9 7 -9 15 0 8 9 15
19 15 14 0 18 -5 14 -20z m-49 -6 c3 -8 2 -12 -4 -9 -6 3 -10 10 -10 16 0 14
7 11 14 -7z m179 -9 c-3 -9 -8 -14 -10 -11 -3 3 -2 9 2 15 9 16 15 13 8 -4z
m-63 -22 c0 -12 -2 -12 -15 1 -8 8 -15 17 -15 20 0 3 7 3 15 0 8 -4 15 -13 15
-21z m125 -33 c3 -5 1 -10 -4 -10 -6 0 -11 5 -11 10 0 6 2 10 4 10 3 0 8 -4
11 -10z m2101 -5 c10 -8 14 -15 7 -15 -19 0 -43 11 -43 21 0 13 14 11 36 -6z
m-2255 -12 c0 -15 2 -15 9 2 7 18 8 19 15 3 4 -10 12 -15 18 -11 6 4 8 0 5 -8
-8 -21 10 -62 23 -53 7 4 10 3 6 -2 -3 -5 15 -34 39 -63 43 -51 52 -80 28 -88
-13 -4 -90 106 -86 124 2 7 -5 16 -15 20 -10 4 -28 17 -40 30 -12 13 -27 23
-33 23 -12 0 -9 22 5 32 16 12 25 9 26 -9z m3098 -26 c1 -5 -3 -5 -9 -2 -5 3
-10 16 -9 28 0 21 1 21 9 2 5 -11 9 -24 9 -28z m-759 -31 c24 -11 33 -29 44
-87 3 -14 19 -45 35 -69 16 -24 27 -48 25 -52 -13 -20 -58 -6 -89 26 -28 30
-36 50 -51 125 -1 8 -10 18 -18 23 -19 11 -66 60 -66 69 0 7 80 -16 120 -35z
m-2153 28 c-3 -3 -12 -4 -19 -1 -8 3 -5 6 6 6 11 1 17 -2 13 -5z m2920 -66
c-3 -8 -6 -5 -6 6 -1 11 2 17 5 13 3 -3 4 -12 1 -19z m93 -38 c11 -22 20 -47
20 -56 0 -9 -13 10 -30 41 -16 31 -30 59 -30 62 0 13 23 -13 40 -47z m-2286
15 c4 -14 4 -30 1 -35 -3 -5 -1 -11 5 -15 13 -8 13 -45 0 -45 -5 0 -10 7 -10
15 0 10 -7 15 -17 13 -14 -2 -19 5 -21 30 -2 19 -1 40 2 48 9 23 33 16 40 -11z
m-1074 -10 c7 -9 11 -17 8 -20 -2 -2 -12 4 -21 15 -9 11 -13 20 -8 20 5 0 14
-7 21 -15z m47 -1 c-3 -3 -12 -4 -19 -1 -8 3 -5 6 6 6 11 1 17 -2 13 -5z
m3272 -24 c5 -16 15 -30 20 -30 14 0 14 -37 0 -45 -7 -5 -5 -13 5 -24 12 -13
13 -28 7 -66 l-8 -50 -13 28 c-10 21 -11 30 -2 39 17 17 15 31 -3 24 -15 -5
-20 19 -16 67 1 9 -3 17 -8 17 -6 0 -11 16 -11 35 0 43 14 45 29 5z m-3245 4
c3 -8 2 -12 -4 -9 -6 3 -10 10 -10 16 0 14 7 11 14 -7z m53 -56 c-1 -10 -5
-18 -10 -18 -4 0 -5 -5 -2 -10 4 -6 11 -8 16 -5 5 4 9 -1 9 -9 0 -8 -4 -18
-10 -21 -15 -10 -12 -35 5 -35 8 0 15 -5 15 -12 0 -6 6 -3 14 7 8 11 12 28 11
37 -2 10 0 16 5 13 9 -6 8 -24 -3 -42 -5 -8 -3 -13 7 -13 9 0 16 8 16 17 0 15
2 14 15 -4 17 -25 10 -59 -10 -43 -6 5 -16 6 -20 2 -5 -4 -5 -1 0 6 5 10 2 13
-11 10 -11 -2 -19 -10 -19 -18 0 -20 -27 -19 -30 1 -6 35 -17 59 -26 54 -5 -4
-9 1 -9 9 0 19 -11 20 -30 4 -12 -11 -12 -10 -2 3 6 9 8 20 4 24 -4 5 -2 5 5
2 19 -12 40 3 38 26 -1 12 -3 22 -4 22 -2 0 -4 8 -6 17 -3 14 0 15 15 6 10 -7
18 -20 17 -30z m-51 8 c0 -14 -3 -23 -7 -20 -6 3 -6 22 0 42 3 10 7 -2 7 -22z
m2263 -68 c-30 -27 -219 -127 -266 -142 -16 -5 -30 2 -57 29 -20 20 -36 40
-36 45 0 16 32 41 47 36 8 -3 11 -1 8 4 -7 11 54 41 93 47 57 8 69 11 95 21
16 7 37 12 47 12 10 0 22 4 25 10 3 5 20 13 38 18 30 8 32 7 35 -22 3 -23 -3
-36 -29 -58z m287 45 c-7 -7 -26 7 -26 19 0 6 6 6 15 -2 9 -7 13 -15 11 -17z
m-2257 -34 c17 -27 28 -55 25 -61 -4 -7 -2 -8 4 -4 7 4 12 2 12 -4 0 -17 -43
-8 -47 10 -4 13 -3 13 6 0 6 -9 11 -10 11 -3 0 23 -13 43 -29 44 -10 0 -11 2
-3 6 6 2 12 9 12 14 0 5 -6 8 -12 7 -7 -2 -12 3 -10 10 1 8 -2 11 -9 7 -6 -4
-8 -16 -5 -28 3 -15 2 -17 -6 -9 -9 9 -8 18 0 37 6 14 14 25 16 25 2 0 18 -23
35 -51z m-322 -1 c-3 -8 -6 -5 -6 6 -1 11 2 17 5 13 3 -3 4 -12 1 -19z m113
-14 c0 -14 -4 -23 -9 -20 -5 3 -7 15 -4 26 7 28 13 25 13 -6z m-110 -59 c0 -8
-4 -15 -10 -15 -5 0 -7 7 -4 15 4 8 8 15 10 15 2 0 4 -7 4 -15z m55 5 c3 -5 1
-10 -4 -10 -6 0 -11 5 -11 10 0 6 2 10 4 10 3 0 8 -4 11 -10z m5 -30 c0 -5 -8
-10 -17 -10 -15 0 -16 2 -3 10 19 12 20 12 20 0z m120 -30 c-5 -18 -5 -30 1
-30 5 0 9 7 9 16 0 19 22 14 28 -7 3 -11 1 -11 -8 1 -9 12 -10 9 -5 -13 5 -26
4 -27 -15 -17 -11 6 -20 8 -20 5 0 -3 -10 4 -22 15 -19 18 -20 22 -8 30 9 6
17 5 21 -1 3 -6 9 -1 12 10 3 12 7 21 10 21 3 0 2 -13 -3 -30z m220 -17 c0 -7
4 -13 8 -13 4 0 13 -14 19 -31 10 -26 10 -29 -2 -19 -8 7 -17 20 -20 31 -4 11
-11 16 -17 13 -6 -4 -8 1 -4 14 4 11 2 23 -4 27 -5 3 -10 1 -10 -6 0 -7 -2
-10 -5 -7 -3 3 -2 13 1 23 7 17 8 17 21 -1 7 -10 13 -24 13 -31z m2874 -35 c1
-26 -2 -48 -5 -48 -9 0 -39 75 -39 98 0 25 22 34 34 13 5 -8 10 -37 10 -63z
m-3212 17 c-6 -34 -13 -32 -10 4 1 16 5 28 9 26 3 -3 4 -16 1 -30z m-55 3 c-3
-8 -6 -5 -6 6 -1 11 2 17 5 13 3 -3 4 -12 1 -19z m108 -18 c3 -5 1 -10 -4 -10
-6 0 -11 5 -11 10 0 6 2 10 4 10 3 0 8 -4 11 -10z m6 -29 c6 10 8 7 6 -9 0
-12 -6 -22 -11 -22 -5 0 -3 -6 6 -12 18 -15 31 -48 19 -48 -4 0 -8 -7 -8 -15
0 -20 14 -19 26 3 10 16 10 16 11 0 0 -10 2 -18 4 -18 2 0 12 -3 21 -6 12 -5
16 -2 13 11 -2 10 2 20 8 22 7 2 10 -7 8 -24 l-4 -28 11 28 c11 28 11 28 26 8
8 -12 19 -18 25 -15 7 4 5 10 -6 16 -11 6 -16 23 -16 54 0 25 -4 43 -8 40 -4
-2 -14 0 -22 5 -11 7 -8 8 10 6 21 -3 26 -10 28 -41 2 -20 7 -34 12 -31 7 4
24 -30 22 -45 0 -3 4 -10 9 -17 7 -7 6 -14 -1 -18 -5 -3 -10 -2 -10 3 0 5 -7
9 -15 9 -9 0 -14 -6 -11 -12 2 -7 0 -18 -5 -26 -7 -11 -9 -10 -10 6 -1 11 -1
26 0 33 1 6 -2 12 -7 12 -15 0 -33 -26 -24 -35 4 -5 1 -5 -6 -1 -7 4 -9 12 -6
18 5 7 1 9 -9 5 -10 -3 -17 -2 -17 3 0 6 -5 10 -11 10 -5 0 -8 -4 -5 -8 2 -4
-4 -8 -14 -8 -10 0 -16 4 -14 8 3 4 -7 10 -22 14 -19 5 -22 9 -12 15 11 7 10
11 -2 19 -13 8 -12 10 3 10 21 0 23 26 2 34 -8 3 -14 11 -13 17 2 6 -3 14 -11
17 -8 2 -11 1 -8 -4 2 -5 -1 -15 -8 -21 -11 -10 -13 -9 -12 7 1 11 5 20 10 20
4 0 5 5 1 11 -4 7 1 7 16 -1 18 -10 24 -9 31 1z m-302 -23 c-5 -10 -15 -18
-22 -18 -8 0 -8 3 2 9 7 5 11 13 8 18 -3 5 0 10 8 10 10 0 11 -5 4 -19z m397
-8 c17 0 18 -19 3 -40 -9 -13 -10 -13 -6 1 6 17 -10 39 -26 39 -5 0 -4 -7 4
-16 10 -13 10 -17 -2 -25 -8 -5 -17 -9 -21 -9 -12 0 -10 18 3 25 6 5 4 12 -8
21 -17 13 -17 14 0 8 14 -5 16 -2 10 12 -7 18 -6 18 11 2 9 -10 24 -18 32 -18z
m-436 13 c0 -3 -7 -11 -15 -19 -13 -14 -15 -13 -15 4 0 10 7 19 15 19 8 0 15
-2 15 -4z m220 -3 c0 -5 -5 -10 -11 -10 -5 0 -7 5 -4 10 3 6 8 10 11 10 2 0 4
-4 4 -10z m-153 -22 c-3 -8 -6 -5 -6 6 -1 11 2 17 5 13 3 -3 4 -12 1 -19z
m609 -16 c-9 -8 -26 10 -26 26 1 15 2 15 15 -2 8 -11 13 -21 11 -24z m-466 2
c0 -2 -9 0 -20 6 -11 6 -20 13 -20 16 0 2 9 0 20 -6 11 -6 20 -13 20 -16z
m-94 -2 c1 -7 0 -8 -3 -2 -2 5 -9 8 -14 4 -5 -3 -9 0 -9 6 0 15 23 7 26 -8z
m-89 -14 c-3 -8 -6 -5 -6 6 -1 11 2 17 5 13 3 -3 4 -12 1 -19z m208 12 c3 -5
1 -10 -4 -10 -6 0 -11 5 -11 10 0 6 2 10 4 10 3 0 8 -4 11 -10z m-226 -54 c-2
-20 -2 -20 -6 2 -2 12 -9 22 -14 22 -5 0 -9 5 -9 11 0 8 5 8 15 -1 8 -7 14
-22 14 -34z m676 33 c11 -17 -1 -21 -15 -4 -8 9 -8 15 -2 15 6 0 14 -5 17 -11z
m-508 -46 c-3 -10 -5 -2 -5 17 0 19 2 27 5 18 2 -10 2 -26 0 -35z m236 32 c-3
-9 -8 -14 -10 -11 -3 3 -2 9 2 15 9 16 15 13 8 -4z m1495 -5 c-7 -10 -14 -17
-17 -15 -4 4 18 35 25 35 2 0 -1 -9 -8 -20z m-1613 -18 c-3 -3 -11 0 -18 7 -9
10 -8 11 6 5 10 -3 15 -9 12 -12z m270 -11 c-3 -5 2 -11 10 -15 8 -3 22 -22
31 -43 9 -21 21 -48 27 -60 6 -13 7 -26 4 -30 -4 -3 -7 1 -7 10 0 10 -4 17
-10 17 -5 0 -10 9 -10 20 0 11 -7 20 -15 20 -8 0 -15 -4 -15 -10 0 -5 -5 -10
-12 -10 -9 0 -9 3 0 12 9 9 8 16 -5 30 -18 20 -11 23 17 8 16 -8 18 -8 14 5
-4 8 -10 15 -15 15 -12 0 -43 33 -47 49 -2 9 3 9 18 1 11 -6 18 -15 15 -19z
m-578 -3 c-3 -8 -6 -5 -6 6 -1 11 2 17 5 13 3 -3 4 -12 1 -19z m716 3 c5 -22
-24 -23 -31 -1 -3 7 0 10 7 6 6 -4 11 -2 11 3 0 17 7 13 13 -8z m-625 -24 c12
-3 10 -5 -5 -6 -18 -1 -23 4 -22 22 1 15 3 17 6 5 2 -9 12 -19 21 -21z m-41
-25 c1 -26 -1 -39 -4 -29 -2 9 -9 15 -14 12 -5 -4 -9 1 -9 10 0 9 5 13 10 10
6 -3 10 -2 10 4 0 5 -5 11 -12 13 -6 2 -8 10 -4 16 14 23 21 12 23 -36z m164
-42 c5 0 9 -9 9 -20 0 -11 -4 -20 -9 -20 -5 0 -12 -12 -14 -27 -2 -16 -4 10
-4 57 0 47 2 68 4 48 2 -21 8 -38 14 -38z m1777 45 c-3 -3 -9 2 -12 12 -6 14
-5 15 5 6 7 -7 10 -15 7 -18z m-1265 -10 c-7 -21 -13 -19 -13 6 0 11 4 18 10
14 5 -3 7 -12 3 -20z m2807 9 c0 -8 -4 -12 -10 -9 -5 3 -10 10 -10 16 0 5 5 9
10 9 6 0 10 -7 10 -16z m-3255 -32 c2 -12 0 -24 -6 -27 -5 -4 -9 8 -9 26 0 35
8 35 15 1z m-196 6 c-1 -7 0 -29 1 -48 l3 -35 7 35 7 35 2 -37 c1 -28 -3 -38
-14 -38 -8 0 -15 -4 -15 -10 0 -5 -6 -10 -14 -10 -10 0 -14 -10 -14 -30 1 -17
-2 -33 -5 -37 -4 -3 -7 17 -7 45 0 28 4 54 10 57 6 4 7 -1 3 -11 -4 -12 -3
-15 6 -10 7 4 11 18 10 29 -3 46 1 77 11 77 6 0 10 -6 9 -12z m318 -10 c-3 -8
-6 -5 -6 6 -1 11 2 17 5 13 3 -3 4 -12 1 -19z m153 12 c0 -5 -2 -10 -4 -10 -3
0 -8 5 -11 10 -3 6 -1 10 4 10 6 0 11 -4 11 -10z m-90 -10 c0 -5 -7 -7 -15 -4
-8 4 -15 8 -15 10 0 2 7 4 15 4 8 0 15 -4 15 -10z m23 -10 c-3 -11 -7 -20 -9
-20 -2 0 -4 9 -4 20 0 11 4 20 9 20 5 0 7 -9 4 -20z m256 -18 c-5 -2 -9 -8 -9
-13 0 -6 5 -7 10 -4 12 7 12 -2 0 -30 -6 -15 -14 -9 -9 8 0 1 -5 15 -11 31 -8
23 -8 31 2 37 8 5 15 2 19 -9 4 -9 2 -18 -2 -20z m2765 23 c3 -8 1 -15 -4 -15
-6 0 -10 7 -10 15 0 8 2 15 4 15 2 0 6 -7 10 -15z m-3001 -27 c-3 -16 -9 -28
-14 -28 -4 0 -3 14 3 31 12 36 18 35 11 -3z m-186 0 c-3 -8 -6 -5 -6 6 -1 11
2 17 5 13 3 -3 4 -12 1 -19z m250 -1 c4 -6 1 -7 -8 -3 -8 4 -5 0 5 -8 11 -9
23 -16 28 -16 4 0 8 -4 8 -10 0 -5 14 -32 31 -60 21 -34 28 -56 24 -70 -5 -17
-10 -19 -21 -9 -8 6 -14 17 -14 23 0 6 4 4 10 -4 5 -8 12 -12 15 -8 4 3 -1 18
-11 33 -17 25 -19 26 -31 9 -10 -14 -13 -15 -13 -3 0 8 5 20 12 27 16 16 -18
28 -36 13 -12 -10 -13 -8 -9 10 6 20 4 20 -18 9 -13 -7 -21 -9 -17 -5 4 4 3
16 -3 26 -6 12 -6 19 0 19 5 0 11 -6 14 -12 2 -7 8 -10 12 -6 4 4 0 14 -9 23
-9 9 -16 13 -16 9 0 -4 -2 -5 -5 -2 -3 3 -3 12 0 20 7 17 40 13 52 -5z m-322
-64 c-3 -42 -2 -79 4 -82 5 -3 2 -12 -6 -19 -12 -12 -14 -2 -12 75 1 48 3 91
6 96 11 18 13 2 8 -70z m-942 61 c7 -7 -13 -64 -23 -64 -9 0 -20 51 -13 62 5
9 27 10 36 2z m874 -14 c1 -11 -2 -22 -8 -25 -10 -7 -13 28 -2 38 9 9 9 10 10
-13z m123 10 c0 -5 -4 -10 -10 -10 -5 0 -10 5 -10 10 0 6 5 10 10 10 6 0 10
-4 10 -10z m1435 1 c3 -5 2 -12 -3 -15 -5 -3 -9 1 -9 9 0 17 3 19 12 6z m255
5 c0 -3 -4 -8 -10 -11 -5 -3 -10 -1 -10 4 0 6 5 11 10 11 6 0 10 -2 10 -4z
m-1706 -108 c-2 -52 -14 -81 -14 -34 0 15 -4 25 -10 21 -7 -4 -7 2 0 19 5 13
7 42 4 63 l-4 38 13 -28 c8 -16 13 -51 11 -79z m3253 76 c-9 -9 -28 6 -21 18
4 6 10 6 17 -1 6 -6 8 -13 4 -17z m380 -36 c-2 -13 -4 -3 -4 22 0 25 2 35 4
23 2 -13 2 -33 0 -45z m-3600 25 c-3 -3 -11 -2 -17 2 -9 6 -9 10 1 16 14 8 27
-7 16 -18z m63 17 c0 -5 -2 -10 -4 -10 -3 0 -8 5 -11 10 -3 6 -1 10 4 10 6 0
11 -4 11 -10z m-31 -32 c-2 -42 -8 -68 -17 -68 -4 0 -5 22 -4 50 4 54 23 71
21 18z m56 -45 l-14 -38 0 51 c-1 55 9 77 21 45 4 -12 1 -37 -7 -58z m3173 31
c-4 -3 -12 5 -18 18 -12 22 -12 22 6 6 10 -10 15 -20 12 -24z m-3198 5 c0 -5
-4 -9 -8 -9 -5 0 -9 7 -9 15 0 8 4 12 9 9 4 -3 8 -9 8 -15z m380 1 c0 -11 -4
-20 -9 -20 -5 0 -7 9 -4 20 3 11 7 20 9 20 2 0 4 -9 4 -20z m-659 -29 c-7 -5
-23 -6 -34 -3 -20 5 -20 6 -1 13 10 4 15 8 11 8 -5 1 -5 6 -1 12 4 7 12 6 23
-5 13 -14 14 -18 2 -25z m213 -6 c-2 -19 0 -35 4 -35 5 0 9 -7 9 -15 0 -10 -4
-12 -13 -4 -8 7 -14 6 -17 -3 -3 -7 -4 -2 -2 12 2 14 4 40 4 58 1 18 5 31 10
27 5 -3 8 -21 5 -40z m1613 23 c-3 -8 -6 -5 -6 6 -1 11 2 17 5 13 3 -3 4 -12
1 -19z m1565 -12 c8 5 9 1 5 -10 -4 -10 -3 -15 3 -11 10 6 50 -29 50 -45 0
-17 -26 -11 -45 10 -14 16 -21 18 -28 8 -6 -9 -7 -8 -3 5 3 9 2 17 -3 17 -5 0
-11 9 -14 20 -3 11 -1 18 4 14 5 -3 10 3 10 13 1 13 3 11 6 -5 3 -13 9 -19 15
-16z m-3317 14 c3 -5 1 -10 -4 -10 -6 0 -11 5 -11 10 0 6 2 10 4 10 3 0 8 -4
11 -10z m284 -30 c6 0 11 -5 11 -11 0 -5 5 -7 12 -3 7 5 9 2 5 -8 -3 -9 0 -21
6 -27 8 -8 7 -11 -6 -11 -10 0 -17 8 -17 20 0 25 -17 27 -22 3 -7 -32 5 -66
23 -70 11 -3 19 -14 19 -24 0 -13 7 -19 23 -20 15 0 17 -2 7 -6 -8 -3 -18 -10
-21 -16 -4 -5 -10 5 -14 23 -4 20 -10 28 -15 21 -9 -16 0 -61 12 -61 6 0 8 -7
5 -15 -4 -8 -2 -17 3 -20 6 -4 10 -12 9 -18 0 -9 -2 -8 -6 1 -2 6 -9 10 -14 6
-5 -3 -9 4 -9 15 0 34 -37 20 -53 -19 -3 -8 -6 0 -6 18 -1 17 -6 32 -12 32 -7
0 -9 10 -5 25 5 20 3 23 -10 18 -8 -3 -20 -15 -24 -27 -8 -19 -9 -19 -9 6 -1
14 -7 29 -13 31 -7 3 -1 6 15 6 17 1 27 6 27 16 0 29 19 14 26 -20 3 -19 10
-35 16 -35 5 0 6 5 3 10 -3 6 -2 10 3 10 6 0 12 -7 16 -15 3 -9 0 -15 -9 -15
-8 0 -15 -4 -15 -9 0 -5 9 -7 19 -4 14 4 19 13 18 39 -1 19 -4 34 -7 34 -5 0
-30 118 -30 142 1 8 5 7 14 -4 7 -10 18 -18 25 -18z m1146 20 c-3 -5 -12 -10
-18 -10 -7 0 -6 4 3 10 19 12 23 12 15 0z m1950 -8 c-3 -3 -11 0 -18 7 -9 10
-8 11 6 5 10 -3 15 -9 12 -12z m-3358 -14 c-3 -8 -6 -5 -6 6 -1 11 2 17 5 13
3 -3 4 -12 1 -19z m178 5 c-2 -27 -22 -59 -32 -50 -4 5 0 13 10 18 9 6 15 14
12 20 -4 5 -3 14 0 19 9 14 12 12 10 -7z m165 13 c0 -3 -4 -8 -10 -11 -5 -3
-10 -1 -10 4 0 6 5 11 10 11 6 0 10 -2 10 -4z m-470 -36 c0 -11 -4 -20 -8 -20
-4 0 -8 9 -9 20 -1 11 2 20 8 20 5 0 9 -9 9 -20z m697 -12 c-3 -7 -5 -2 -5 12
0 14 2 19 5 13 2 -7 2 -19 0 -25z m-662 12 c-3 -5 -10 -10 -16 -10 -5 0 -9 5
-9 10 0 6 7 10 16 10 8 0 12 -4 9 -10z m-840 -10 c3 -5 1 -10 -4 -10 -6 0 -11
5 -11 10 0 6 2 10 4 10 3 0 8 -4 11 -10z m940 0 c3 -5 1 -10 -4 -10 -6 0 -11
5 -11 10 0 6 2 10 4 10 3 0 8 -4 11 -10z m1725 -21 c-10 -35 -17 -45 -25 -37
-5 5 23 68 30 68 2 0 0 -14 -5 -31z m-1842 -11 c-2 -28 42 -119 54 -112 4 3 8
-1 8 -9 0 -21 26 -68 56 -102 41 -46 56 -73 49 -85 -3 -5 2 -10 12 -10 10 0
29 -17 43 -39 13 -22 34 -45 47 -52 12 -7 25 -20 29 -31 3 -10 10 -18 15 -18
5 0 9 -7 9 -16 0 -9 5 -12 12 -8 7 4 8 3 4 -4 -9 -14 22 -62 37 -58 7 1 9 1 6
-1 -4 -2 -4 -14 -2 -26 5 -17 3 -19 -7 -10 -7 6 -18 22 -24 35 -7 12 -18 22
-24 21 -6 -2 -9 4 -6 11 6 16 -12 16 -35 2 -10 -6 -12 -5 -7 2 4 7 1 12 -8 12
-9 0 -16 4 -16 9 0 17 25 19 43 3 16 -15 17 -14 11 1 -3 9 -9 17 -14 17 -4 0
-12 10 -19 23 -11 22 -11 22 -6 -3 6 -24 5 -24 -9 -7 -8 11 -13 24 -12 30 2 7
1 9 -1 4 -3 -4 -9 -5 -14 -1 -5 3 -9 1 -9 -5 0 -5 5 -13 10 -16 6 -3 10 -16
10 -28 0 -16 -5 -11 -20 18 -11 22 -20 47 -20 57 0 10 -4 18 -10 18 -13 0 -13
-16 -1 -39 7 -13 6 -18 -5 -18 -9 0 -14 12 -14 36 0 28 -3 33 -11 21 -8 -12
-9 -8 -6 15 2 17 2 24 -1 16 -3 -11 -8 -9 -17 8 -8 15 -15 20 -19 12 -4 -6 -3
-11 2 -11 16 0 23 -30 11 -51 -5 -11 -15 -17 -21 -13 -7 4 -6 9 3 15 12 7 12
9 0 9 -7 0 -11 6 -7 15 3 8 1 15 -4 15 -5 0 -10 -8 -12 -17 -3 -12 -9 -4 -16
21 -10 34 -9 43 5 58 9 10 11 18 5 18 -6 0 -19 3 -29 6 -13 4 -15 3 -4 -4 9
-7 10 -12 2 -16 -6 -4 -15 4 -21 19 -13 33 -13 52 0 60 15 9 12 23 -10 42 -11
10 -20 28 -20 41 0 12 -7 25 -15 28 -8 4 -15 14 -15 23 0 14 2 14 10 1 8 -12
10 -11 10 8 0 13 -6 22 -15 22 -8 0 -15 4 -15 9 0 5 -3 17 -6 25 -4 12 -2 15
9 10 8 -3 18 -1 22 5 10 17 15 13 13 -11z m49 -10 c-3 -7 -5 -2 -5 12 0 14 2
19 5 13 2 -7 2 -19 0 -25z m380 -8 c-2 -40 -17 -57 -17 -19 0 11 -4 18 -9 14
-5 -3 -12 -1 -16 5 -3 5 1 10 10 10 8 0 18 7 21 15 10 25 14 17 11 -25z m-143
-8 c-5 -25 -12 -32 -30 -32 -17 0 -24 -7 -27 -27 -2 -16 -5 -4 -6 25 0 32 3
52 10 52 6 0 9 -7 6 -15 -8 -19 5 -26 23 -14 10 6 11 9 3 9 -7 0 -13 8 -12 18
0 10 3 12 6 5 5 -14 24 -18 22 -5 -2 14 1 25 6 20 3 -3 2 -19 -1 -36z m56 14
c0 -7 -3 -15 -6 -19 -9 -9 -36 21 -29 32 8 13 35 2 35 -13z m337 -8 c-3 -7 -5
-2 -5 12 0 14 2 19 5 13 2 -7 2 -19 0 -25z m-1509 -4 c2 -21 -2 -25 -20 -22
-30 4 -34 26 -6 37 12 6 23 10 23 10 0 1 2 -11 3 -25z m1282 -4 c-16 -10 18
-43 37 -36 8 3 11 2 8 -3 -3 -5 -1 -13 5 -16 6 -4 8 -16 5 -28 -2 -12 -2 -16
1 -9 8 17 24 15 24 -3 0 -8 -4 -15 -10 -15 -5 0 -10 -7 -10 -15 0 -9 -9 -15
-25 -15 -14 0 -25 5 -25 11 0 5 4 8 9 5 9 -6 24 35 16 43 -3 2 -5 -2 -5 -10 0
-11 -2 -11 -10 1 -8 13 -10 12 -10 -2 0 -10 -4 -18 -10 -18 -13 0 -13 23 1 37
8 8 6 18 -6 36 -14 21 -14 29 -3 46 7 12 15 16 17 10 2 -6 -2 -15 -9 -19z
m-263 -12 c-3 -7 -5 -2 -5 12 0 14 2 19 5 13 2 -7 2 -19 0 -25z m390 0 c-3 -7
-5 -2 -5 12 0 14 2 19 5 13 2 -7 2 -19 0 -25z m2920 26 c-3 -3 -12 -4 -19 -1
-8 3 -5 6 6 6 11 1 17 -2 13 -5z m-3290 -41 c-3 -10 -5 -4 -5 12 0 17 2 24 5
18 2 -7 2 -21 0 -30z m1364 4 c-10 -9 -11 -8 -5 6 3 10 9 15 12 12 3 -3 0 -11
-7 -18z m-1516 3 c3 -5 1 -10 -4 -10 -6 0 -11 5 -11 10 0 6 2 10 4 10 3 0 8
-4 11 -10z m3415 -14 c0 -3 -4 -8 -10 -11 -5 -3 -10 -1 -10 4 0 6 5 11 10 11
6 0 10 -2 10 -4z m-3283 -38 c-3 -8 -6 -5 -6 6 -1 11 2 17 5 13 3 -3 4 -12 1
-19z m1141 -3 c-6 -14 -13 -24 -14 -22 -6 6 9 47 17 47 5 0 3 -11 -3 -25z m32
0 c0 -8 -4 -15 -10 -15 -5 0 -7 7 -4 15 4 8 8 15 10 15 2 0 4 -7 4 -15z m1556
-9 c10 -8 17 -17 14 -19 -3 -3 -16 3 -30 13 -29 22 -14 27 16 6z m531 -12 c14
-13 14 -17 2 -26 -11 -7 -9 -9 7 -5 12 2 21 -1 21 -8 0 -7 -11 -10 -26 -8 -14
2 -19 0 -11 -4 8 -3 21 -12 28 -20 11 -11 11 -13 -4 -13 -13 0 -12 -5 10 -25
29 -27 35 -51 10 -41 -13 5 -15 2 -11 -14 3 -11 0 -20 -6 -20 -8 0 -8 -3 -2
-8 14 -10 15 -42 1 -42 -7 0 -7 -3 1 -8 7 -4 15 -24 18 -42 3 -19 3 -30 -1
-23 -4 9 -12 7 -27 -8 l-22 -20 24 -20 c21 -17 22 -22 10 -30 -12 -8 -12 -10
0 -18 11 -7 11 -10 -1 -17 -8 -5 -18 -31 -22 -59 -3 -27 -15 -62 -27 -78 -11
-15 -17 -32 -14 -38 4 -5 0 -20 -8 -32 -8 -12 -20 -39 -27 -60 -9 -31 -16 -38
-31 -34 -12 3 -19 0 -19 -9 0 -7 -10 -19 -22 -25 -40 -21 -46 -39 -22 -63 8
-9 11 -16 6 -16 -5 0 -13 -11 -16 -25 -4 -14 -13 -25 -20 -25 -16 0 -26 -30
-26 -77 0 -17 -4 -35 -10 -38 -5 -3 -10 1 -10 9 0 9 -6 13 -13 10 -11 -4 -14
10 -14 57 -1 34 3 74 7 89 10 36 -7 118 -32 150 -13 17 -16 26 -8 28 7 3 15 0
19 -5 8 -13 44 -26 36 -13 -3 6 -1 10 4 10 6 0 11 -6 11 -14 0 -17 38 -18 58
-3 10 8 10 12 0 18 -9 6 -9 13 2 35 16 28 15 62 -1 78 -12 13 -12 49 0 42 5
-3 11 4 14 15 4 15 11 19 25 14 25 -7 74 4 67 15 -3 5 -21 6 -40 3 -28 -5 -35
-2 -35 11 0 11 4 14 13 10 9 -6 9 -5 0 7 -10 13 -2 25 48 73 44 42 58 63 53
75 -14 31 -14 51 -1 51 8 0 18 15 24 34 8 27 8 37 -4 49 -15 15 -10 37 8 37 6
0 7 -4 4 -10 -3 -5 -1 -10 4 -10 6 0 11 7 11 15 0 8 -9 15 -19 15 -11 0 -32
10 -47 23 -20 18 -25 29 -20 45 4 12 14 22 22 22 8 0 17 7 20 15 8 19 12 19
31 -1z m-2894 -14 c3 -11 1 -20 -4 -20 -5 0 -9 9 -9 20 0 11 2 20 4 20 2 0 6
-9 9 -20z m1038 -16 c-5 -16 -10 -21 -10 -12 -1 18 10 51 15 45 2 -1 -1 -16
-5 -33z m-1161 22 c0 -3 -4 -8 -10 -11 -5 -3 -10 -1 -10 4 0 6 5 11 10 11 6 0
10 -2 10 -4z m945 -16 c3 -5 1 -10 -4 -10 -6 0 -11 5 -11 10 0 6 2 10 4 10 3
0 8 -4 11 -10z m-941 -40 c-2 -54 -14 -65 -14 -13 0 32 6 53 15 53 1 0 0 -18
-1 -40z m135 8 c-9 -16 -14 -19 -17 -9 -3 9 -9 4 -18 -15 -11 -26 -12 -27 -13
-6 -1 12 -7 22 -13 22 -23 0 16 20 40 20 12 0 22 5 22 12 0 6 3 9 6 6 3 -4 0
-17 -7 -30z m772 23 c-7 -5 -11 -13 -8 -17 3 -5 -1 -15 -9 -22 -17 -15 -17
-12 -4 22 5 14 15 26 22 26 10 0 10 -2 -1 -9z m-39 -23 c-7 -7 -12 -8 -12 -2
0 14 12 26 19 19 2 -3 -1 -11 -7 -17z m-1285 -10 c-3 -8 -6 -5 -6 6 -1 11 2
17 5 13 3 -3 4 -12 1 -19z m353 0 c0 -11 -5 -18 -12 -16 -16 6 -18 35 -2 35 8
0 14 -9 14 -19z m223 -8 c3 -11 1 -20 -4 -20 -5 0 -9 9 -9 20 0 11 2 20 4 20
2 0 6 -9 9 -20z m2817 -52 c0 -13 -33 -8 -60 7 -14 8 -20 15 -15 15 6 0 4 4
-4 9 -8 5 -11 16 -8 26 6 14 13 11 47 -17 22 -18 40 -36 40 -40z m-2900 37 c0
-8 -4 -15 -9 -15 -5 0 -11 7 -15 15 -3 9 0 15 9 15 8 0 15 -7 15 -15z m780 0
c0 -9 6 -12 18 -8 9 3 14 3 11 -1 -4 -4 -15 -8 -26 -10 -13 -3 -19 2 -19 15 0
10 4 19 8 19 4 0 8 -7 8 -15z m282 -7 c-7 -7 -12 -8 -12 -2 0 14 12 26 19 19
2 -3 -1 -11 -7 -17z m211 7 c-3 -9 -8 -14 -10 -11 -3 3 -2 9 2 15 9 16 15 13
8 -4z m2158 -7 c5 -74 -5 -506 -12 -525 -4 -12 -17 -27 -28 -32 -17 -10 -20
-7 -26 19 -8 37 -25 30 -25 -11 0 -16 -4 -29 -10 -29 -6 0 -10 28 -10 65 0 37
-4 65 -10 65 -13 0 -13 -3 -11 -249 1 -113 -1 -202 -5 -199 -3 4 -8 79 -10
167 -2 88 -6 166 -9 173 -6 18 -33 561 -28 571 2 4 44 7 94 7 85 0 89 -1 90
-22z m162 2 c-3 -11 0 -20 6 -20 7 0 11 -25 11 -70 l0 -70 -40 0 c-22 0 -40 5
-40 11 0 21 -18 -2 -23 -31 -4 -16 -11 -30 -17 -30 -6 0 -13 14 -17 30 -3 17
-10 33 -14 36 -14 8 -10 48 8 84 12 24 13 35 5 38 -9 3 -9 9 -2 23 9 15 22 19
69 19 54 0 59 -2 54 -20z m67 -15 c0 -19 -4 -35 -10 -35 -9 0 -11 46 -3 63 8
15 13 6 13 -28z m-3763 3 c-3 -8 -6 -5 -6 6 -1 11 2 17 5 13 3 -3 4 -12 1 -19z
m1126 1 c-8 -8 -13 -7 -18 2 -5 8 -4 10 3 5 7 -4 12 -2 12 5 0 7 3 9 7 6 4 -4
2 -12 -4 -18z m-1066 -11 c-3 -8 -6 -5 -6 6 -1 11 2 17 5 13 3 -3 4 -12 1 -19z
m1291 -21 c-8 -17 -13 -18 -16 -7 -3 7 0 16 7 18 6 2 8 9 5 14 -4 7 -2 8 4 4
9 -5 9 -13 0 -29z m343 6 c-12 -20 -14 -14 -5 12 4 9 9 14 11 11 3 -2 0 -13
-6 -23z m-1711 13 c0 -3 -4 -8 -10 -11 -5 -3 -10 -1 -10 4 0 6 5 11 10 11 6 0
10 -2 10 -4z m154 -12 c3 -8 2 -12 -4 -9 -6 3 -10 10 -10 16 0 14 7 11 14 -7z
m1044 -2 c6 -18 -15 -14 -22 4 -4 10 -1 14 6 12 6 -2 14 -10 16 -16z m-1158
-13 c0 -6 -4 -7 -10 -4 -5 3 -10 11 -10 16 0 6 5 7 10 4 6 -3 10 -11 10 -16z
m1217 -9 c-1 -11 -5 -20 -9 -20 -10 0 -10 4 -2 24 8 22 13 20 11 -4z m-65 -23
c-4 -15 -7 -17 -10 -7 -3 8 -9 20 -14 27 -6 8 -4 10 10 6 14 -3 18 -11 14 -26z
m-1535 -19 c-3 -8 -6 -5 -6 6 -1 11 2 17 5 13 3 -3 4 -12 1 -19z m1573 18 c0
-2 -7 -6 -15 -10 -8 -3 -15 -1 -15 4 0 6 7 10 15 10 8 0 15 -2 15 -4z m115
-15 c-3 -6 -11 -11 -16 -11 -5 0 -4 6 3 14 14 16 24 13 13 -3z m-482 -11 c-3
-12 -8 -19 -11 -16 -5 6 5 36 12 36 2 0 2 -9 -1 -20z m440 -5 c8 -8 18 -11 21
-7 11 10 -6 -30 -31 -73 -12 -22 -23 -33 -24 -25 0 8 -2 23 -4 32 -2 9 3 22
11 29 8 6 14 8 14 3 0 -5 4 -3 9 5 7 11 3 20 -11 33 -12 10 -16 18 -10 18 6 0
17 -7 25 -15z m2487 0 c0 -8 -4 -15 -10 -15 -5 0 -10 7 -10 15 0 8 5 15 10 15
6 0 10 -7 10 -15z m-2520 -10 c7 -9 8 -15 2 -15 -5 0 -12 7 -16 15 -3 8 -4 15
-2 15 2 0 9 -7 16 -15z m-450 -1 c0 -8 -19 -13 -24 -6 -3 5 1 9 9 9 8 0 15 -2
15 -3z m-349 -13 c-8 -5 -10 -14 -6 -22 6 -11 5 -11 -5 -2 -14 12 -6 33 13 33
8 0 7 -3 -2 -9z m2645 -39 c-11 -10 -15 4 -8 28 l7 25 3 -23 c2 -13 1 -26 -2
-30z m-306 -17 c16 -65 8 -79 -25 -43 -34 37 -42 73 -18 87 28 16 29 15 43
-44z m-3119 17 c-6 -2 -8 -11 -5 -20 3 -9 -2 -6 -10 8 -21 34 -20 42 4 28 11
-7 16 -14 11 -16z m2009 13 c0 -8 -4 -15 -10 -15 -5 0 -7 7 -4 15 4 8 8 15 10
15 2 0 4 -7 4 -15z m1173 -33 c-6 -14 -4 -15 9 -5 24 20 29 3 8 -25 -11 -13
-20 -31 -20 -38 0 -28 -18 -13 -23 19 -3 17 -8 40 -12 50 -6 13 -3 16 9 11 13
-5 15 -2 9 12 -6 17 -5 17 10 6 9 -8 13 -20 10 -30z m-2377 16 c4 -7 3 -9 -1
-5 -5 4 -15 -3 -22 -15 -8 -15 -12 -18 -13 -7 0 8 5 20 12 27 15 15 15 15 24
0z m759 2 c3 -5 1 -10 -4 -10 -6 0 -11 5 -11 10 0 6 2 10 4 10 3 0 8 -4 11
-10z m-421 -8 c3 -5 -1 -9 -9 -9 -8 0 -12 4 -9 9 3 4 7 8 9 8 2 0 6 -4 9 -8z
m2896 -47 c0 -30 -3 -55 -8 -55 -18 0 -42 43 -42 75 0 31 3 35 25 35 24 0 25
-3 25 -55z m-2602 20 c-3 -3 -9 2 -12 12 -6 14 -5 15 5 6 7 -7 10 -15 7 -18z
m-277 -4 c-6 -10 -8 -31 -5 -46 4 -23 3 -26 -9 -17 -8 7 -16 11 -18 9 -2 -1 1
3 7 8 9 8 9 16 2 29 -7 13 -7 17 0 12 5 -3 12 1 16 9 3 8 8 15 11 15 3 0 1 -8
-4 -19z m339 15 c0 -3 -4 -8 -10 -11 -5 -3 -10 -1 -10 4 0 6 5 11 10 11 6 0
10 -2 10 -4z m54 -14 c-14 -9 -24 -38 -16 -46 3 -4 12 4 19 16 9 18 12 19 13
6 0 -9 -10 -33 -21 -53 -17 -28 -24 -33 -35 -24 -20 17 -17 32 5 26 17 -4 18
-2 8 13 -6 10 -13 18 -16 18 -19 -2 -30 4 -34 16 -4 10 -1 13 8 10 8 -3 26 4
41 15 15 12 30 19 33 16 3 -4 1 -9 -5 -13z m-1482 -37 c3 4 9 2 12 -4 9 -14
-35 -5 -48 10 -8 9 -7 10 3 4 10 -6 12 -2 7 16 -5 20 -3 19 7 -4 7 -15 16 -25
19 -22z m4028 35 c0 -5 -4 -10 -10 -10 -5 0 -10 5 -10 10 0 6 5 10 10 10 6 0
10 -4 10 -10z m-4070 -4 c0 -11 -19 -15 -25 -6 -3 5 1 10 9 10 9 0 16 -2 16
-4z m921 -19 c-10 -9 -11 -8 -5 6 3 10 9 15 12 12 3 -3 0 -11 -7 -18z m-821 6
c0 -5 -5 -15 -11 -23 -9 -13 -10 -13 -6 2 3 9 1 19 -6 22 -7 2 -4 5 6 5 9 1
17 -2 17 -6z m628 -19 c-14 -14 -16 -14 -22 1 -3 9 -2 13 3 10 5 -3 13 0 16 6
4 5 10 8 13 4 3 -3 -1 -12 -10 -21z m26 -8 c-6 -15 -24 -23 -24 -11 0 8 24 34
28 30 1 -1 0 -10 -4 -19z m279 9 c-3 -9 -8 -14 -10 -11 -3 3 -2 9 2 15 9 16
15 13 8 -4z m-1035 -20 c-3 -3 -9 2 -12 12 -6 14 -5 15 5 6 7 -7 10 -15 7 -18z
m1942 15 c0 -5 -2 -10 -4 -10 -3 0 -8 5 -11 10 -3 6 -1 10 4 10 6 0 11 -4 11
-10z m-480 -15 c0 -2 -6 -5 -13 -8 -8 -3 -14 1 -14 8 0 7 6 11 14 8 7 -3 13
-6 13 -8z m-1417 -32 c-6 -16 -6 -16 -22 15 -11 21 -11 22 7 11 11 -7 18 -19
15 -26z m224 22 c8 -22 -6 -33 -17 -15 -13 20 -12 30 0 30 6 0 13 -7 17 -15z
m443 0 c0 -12 -19 -12 -23 0 -4 9 -1 12 9 8 7 -3 14 -7 14 -8z m-630 -10 c11
-13 10 -14 -4 -9 -9 3 -16 10 -16 15 0 13 6 11 20 -6z m30 0 c0 -8 -2 -15 -4
-15 -2 0 -6 7 -10 15 -3 8 -1 15 4 15 6 0 10 -7 10 -15z m1120 5 c0 -5 -2 -10
-4 -10 -3 0 -8 5 -11 10 -3 6 -1 10 4 10 6 0 11 -4 11 -10z m-490 -11 c0 -5
-5 -7 -12 -3 -7 5 -9 2 -6 -7 3 -8 -2 -30 -12 -49 -17 -33 -18 -34 -17 -8 1
14 6 24 11 21 5 -3 6 0 4 8 -6 17 9 49 22 49 6 0 10 -5 10 -11z m372 -25 c-9
-16 -10 -14 -9 8 1 15 6 23 11 18 4 -4 4 -16 -2 -26z m298 22 c0 -3 -4 -8 -10
-11 -5 -3 -10 -1 -10 4 0 6 5 11 10 11 6 0 10 -2 10 -4z m78 -29 c10 -11 9
-17 -3 -27 -8 -7 -15 -16 -15 -21 0 -5 -9 -23 -21 -41 -12 -18 -18 -25 -15
-15 3 11 2 16 -4 12 -6 -3 -10 0 -10 9 0 8 -6 17 -12 19 -7 3 -3 6 10 6 13 1
20 5 17 11 -5 9 7 14 27 12 16 -3 16 29 0 36 -9 4 -18 13 -20 20 -3 15 28 1
46 -21z m-435 8 c-3 -9 -8 -14 -10 -11 -3 3 -2 9 2 15 9 16 15 13 8 -4z m864
-7 c-3 -8 -6 -5 -6 6 -1 11 2 17 5 13 3 -3 4 -12 1 -19z m-1850 -14 c-9 -9
-28 6 -21 18 4 6 10 6 17 -1 6 -6 8 -13 4 -17z m285 -29 c10 -18 9 -18 -4 -7
-13 10 -18 10 -24 1 -4 -7 -2 -15 4 -17 7 -2 10 -8 6 -13 -3 -5 0 -9 6 -9 7 0
9 -9 5 -22 -5 -18 -4 -20 4 -8 10 13 11 13 11 0 0 -8 -10 -21 -21 -29 -21 -12
-22 -12 -15 21 3 18 3 29 -2 23 -13 -18 -32 -15 -32 5 0 13 5 18 15 14 11 -5
13 -2 9 10 -3 9 -1 22 5 30 6 7 9 22 5 32 -5 16 -4 17 5 4 7 -8 17 -24 23 -35z
m24 8 c-4 -4 -11 -1 -16 7 -16 25 -11 35 7 17 9 -9 13 -20 9 -24z m-136 6 c0
-6 -4 -7 -10 -4 -5 3 -10 11 -10 16 0 6 5 7 10 4 6 -3 10 -11 10 -16z m850 11
c0 -5 -2 -10 -4 -10 -3 0 -8 5 -11 10 -3 6 -1 10 4 10 6 0 11 -4 11 -10z m124
1 c3 -5 -1 -11 -9 -14 -9 -4 -12 -1 -8 9 6 16 10 17 17 5z m241 -1 c-3 -5 -11
-10 -16 -10 -6 0 -7 5 -4 10 3 6 11 10 16 10 6 0 7 -4 4 -10z m-390 -10 c3 -5
1 -10 -4 -10 -6 0 -11 5 -11 10 0 6 2 10 4 10 3 0 8 -4 11 -10z m-1015 -9 c0
-5 3 -18 6 -28 5 -16 4 -16 -10 1 -18 23 -20 36 -6 36 6 0 10 -4 10 -9z m147
-13 c-3 -8 -6 -5 -6 6 -1 11 2 17 5 13 3 -3 4 -12 1 -19z m94 -11 c-10 -9 -11
-8 -5 6 3 10 9 15 12 12 3 -3 0 -11 -7 -18z m143 7 c9 -22 -3 -32 -14 -14 -12
19 -12 30 -1 30 5 0 12 -7 15 -16z m487 -17 c-10 -9 -11 -8 -5 6 3 10 9 15 12
12 3 -3 0 -11 -7 -18z m2199 -3 c0 -22 -16 -17 -17 6 -1 11 2 18 8 15 5 -4 9
-13 9 -21z m-2730 -35 c0 -4 -4 -11 -10 -14 -6 -4 -7 1 -3 11 4 11 2 15 -4 11
-12 -8 -25 17 -15 28 6 6 32 -22 32 -36z m573 27 c4 -10 1 -13 -8 -9 -8 3 -12
9 -9 14 7 12 11 11 17 -5z m25 -11 c-3 -3 -9 2 -12 12 -6 14 -5 15 5 6 7 -7
10 -15 7 -18z m1543 2 c-10 -9 -11 -8 -5 6 3 10 9 15 12 12 3 -3 0 -11 -7 -18z
m-2431 9 c0 -3 -4 -8 -10 -11 -5 -3 -10 -1 -10 4 0 6 5 11 10 11 6 0 10 -2 10
-4z m308 -21 c-3 -3 -9 2 -12 12 -6 14 -5 15 5 6 7 -7 10 -15 7 -18z m1011 -7
c7 -19 7 -28 0 -28 -6 0 -8 -4 -4 -9 3 -5 -5 -25 -17 -45 -13 -19 -38 -60 -56
-91 -18 -30 -38 -52 -44 -49 -6 4 -6 9 -1 13 12 8 25 39 29 71 2 18 1 21 -6
10 -5 -8 -11 -12 -14 -9 -3 3 8 17 24 33 31 29 37 28 20 -5 -7 -13 -7 -19 0
-19 10 0 14 18 12 50 0 8 3 17 7 20 4 3 15 16 24 29 15 22 15 27 2 41 -13 15
-13 17 0 17 8 0 19 -13 24 -29z m1691 8 c0 -3 -4 -8 -10 -11 -5 -3 -10 -1 -10
4 0 6 5 11 10 11 6 0 10 -2 10 -4z m-2829 -20 c5 3 9 -1 9 -8 0 -9 3 -9 10 2
8 12 10 10 10 -11 0 -14 -10 -34 -24 -46 l-24 -21 1 51 c1 28 3 45 5 39 2 -7
8 -10 13 -6z m755 -20 c0 -14 -5 -21 -9 -17 -4 4 -5 15 -1 24 9 24 12 21 10
-7z m-838 -11 c-3 -3 -9 2 -12 12 -6 14 -5 15 5 6 7 -7 10 -15 7 -18z m2950
-14 c1 -33 -42 -63 -76 -54 -24 6 -21 17 10 34 14 8 18 8 14 0 -5 -7 -1 -8 9
-5 10 4 15 14 12 25 -3 12 -1 17 6 12 6 -4 8 0 4 10 -4 11 -2 14 7 11 7 -3 13
-17 14 -33z m-2188 -3 c-1 -26 -3 -30 -10 -16 -6 9 -7 23 -4 32 9 25 14 19 14
-16z m40 24 c0 -5 -6 -16 -13 -26 -12 -16 -13 -16 -13 3 0 11 4 17 8 15 4 -3
8 0 8 5 0 6 2 11 5 11 3 0 5 -4 5 -8z m-900 -37 c0 -5 -5 -3 -10 5 -5 8 -10
20 -10 25 0 6 5 3 10 -5 5 -8 10 -19 10 -25z m773 20 c-3 -9 -8 -14 -10 -11
-3 3 -2 9 2 15 9 16 15 13 8 -4z m2178 -5 c-25 -21 -46 -27 -36 -9 6 9 41 27
55 28 3 0 -6 -9 -19 -19z m-2031 -21 c0 -5 -4 -9 -10 -9 -5 0 -10 7 -10 16 0
8 5 12 10 9 6 -3 10 -10 10 -16z m-775 -21 c-3 -11 -15 -32 -27 -45 -21 -22
-23 -23 -35 -7 -7 10 -13 23 -13 28 0 6 5 3 11 -7 6 -9 14 -15 20 -12 13 9 11
42 -3 48 -8 3 -6 6 5 6 11 1 17 -7 18 -21 1 -22 2 -19 14 20 7 20 14 13 10
-10z m633 -24 c-7 -15 -14 -21 -16 -15 -2 7 2 18 8 26 18 22 21 18 8 -11z
m279 20 c-3 -3 -12 -4 -19 -1 -8 3 -5 6 6 6 11 1 17 -2 13 -5z m-823 -65 c-18
-36 -34 -51 -34 -30 0 17 27 61 33 54 4 -3 7 5 8 18 0 13 3 18 6 11 3 -8 -3
-31 -13 -53z m1666 47 c0 -2 -7 -7 -16 -10 -8 -3 -12 -2 -9 4 6 10 25 14 25 6z
m-1853 -48 c-3 -7 -5 -2 -5 12 0 14 2 19 5 13 2 -7 2 -19 0 -25z m0 -77 c-1
-23 -7 -31 -21 -31 -12 0 -16 5 -12 16 3 9 6 21 6 27 0 7 5 6 11 -3 8 -12 10
-10 6 10 -2 14 -8 34 -11 45 -4 11 0 8 8 -6 8 -15 14 -41 13 -58z m850 57 c-3
-8 -6 -5 -6 6 -1 11 2 17 5 13 3 -3 4 -12 1 -19z m-818 -5 c0 -11 -3 -13 -6
-5 -2 6 -10 9 -15 6 -7 -4 -8 -2 -4 4 11 18 26 14 25 -5z m961 -3 c0 -5 -4
-10 -10 -10 -5 0 -10 5 -10 10 0 6 5 10 10 10 6 0 10 -4 10 -10z m-420 -14 c0
-2 -8 -10 -17 -17 -16 -13 -17 -12 -4 4 13 16 21 21 21 13z m2230 -73 c0 -30
-24 -39 -56 -22 -33 17 -40 51 -18 78 l18 21 28 -27 c15 -15 28 -37 28 -50z
m-2640 53 c0 -7 8 -20 17 -27 15 -12 16 -12 10 4 -3 9 -2 17 3 17 14 0 13 -57
-1 -66 -6 -3 -15 -1 -19 5 -5 9 -10 8 -19 -2 -9 -11 -8 -17 4 -27 13 -11 14
-10 9 6 -5 14 -4 16 4 9 13 -12 5 -55 -10 -55 -5 0 -6 4 -3 10 3 5 0 7 -7 5
-15 -6 -19 37 -6 50 4 4 4 14 1 23 -4 10 -2 13 5 8 15 -9 15 -5 2 28 -6 17 -6
26 0 26 6 0 10 -6 10 -14z m2334 -8 c-13 -44 -20 -48 -20 -13 0 23 5 35 14 35
9 0 11 -7 6 -22z m-1383 -53 c17 11 9 -12 -11 -30 -18 -16 -20 -16 -20 -2 0
10 4 17 9 17 5 0 8 8 6 18 -1 9 0 11 2 4 3 -7 9 -10 14 -7z m-1116 -4 c3 -5 1
-12 -4 -15 -5 -3 -11 1 -15 9 -6 16 9 21 19 6z m2375 -6 c0 -8 -2 -15 -4 -15
-2 0 -6 7 -10 15 -3 8 -1 15 4 15 6 0 10 -7 10 -15z m-613 -17 c-3 -8 -6 -5
-6 6 -1 11 2 17 5 13 3 -3 4 -12 1 -19z m-1087 -25 c0 -3 -7 -3 -15 1 -8 3
-15 4 -15 2 0 -3 -3 -12 -6 -21 -7 -17 15 -18 28 0 4 5 10 6 14 3 3 -4 -1 -14
-10 -23 -9 -9 -16 -12 -16 -6 0 5 -9 8 -20 6 -19 -4 -19 -2 -5 25 10 19 20 27
30 24 8 -4 15 -8 15 -11z m2175 -2 c-8 -14 -25 -14 -25 0 0 5 5 7 10 4 6 -3
10 -1 10 6 0 7 3 10 6 6 3 -3 3 -10 -1 -16z m-2900 -31 c1 -17 -1 -28 -4 -24
-3 3 -6 19 -7 35 -1 17 1 28 4 25 3 -3 6 -19 7 -36z m205 -5 c11 -13 10 -14
-5 -9 -13 5 -16 4 -11 -4 5 -8 2 -10 -8 -6 -12 5 -13 9 -3 20 15 17 12 17 27
-1z m2664 -5 c13 -13 -29 -4 -51 10 -15 9 -13 10 12 5 17 -4 34 -10 39 -15z
m-106 -36 c-10 -10 -28 6 -28 24 0 15 1 15 17 -1 9 -9 14 -19 11 -23z m269 14
c-3 -8 -6 -5 -6 6 -1 11 2 17 5 13 3 -3 4 -12 1 -19z m-2644 5 c-7 -2 -21 -2
-30 0 -10 3 -4 5 12 5 17 0 24 -2 18 -5z m299 -8 c3 0 9 -3 13 -7 4 -3 0 -5
-9 -4 -8 1 -19 5 -22 9 -4 4 -14 1 -23 -6 -14 -11 -14 -10 -2 5 7 10 18 15 25
11 6 -4 14 -8 18 -8z m-482 -33 c0 -22 -33 -9 -35 14 -1 19 1 20 17 11 10 -7
18 -18 18 -25z m2660 4 c0 -6 -7 -19 -14 -29 -13 -16 -14 -16 -20 8 -4 14 -11
25 -16 25 -5 0 -7 6 -4 14 5 12 11 13 30 4 13 -6 24 -16 24 -22z m-371 15 c18
-11 5 -31 -20 -31 -21 0 -22 1 -13 24 7 18 13 19 33 7z m-74 -20 c-3 -6 -11
-11 -17 -11 -6 0 -6 6 2 15 14 17 26 13 15 -4z m-1710 0 c-3 -5 -1 -12 5 -16
15 -9 12 -25 -3 -19 -15 5 -20 44 -6 44 6 0 8 -4 4 -9z m-315 -17 c0 -6 -7
-11 -15 -11 -8 0 -12 4 -9 8 2 4 -4 10 -13 12 -10 3 -6 4 10 4 15 -1 27 -6 27
-13z m2394 -3 c8 -13 -4 -42 -15 -35 -12 7 -12 44 0 44 6 0 12 -4 15 -9z
m-2447 -12 c-11 -7 -23 -7 -28 -2 -5 5 3 9 19 11 24 1 25 0 9 -9z m-137 -3 c0
-2 3 -12 7 -21 5 -15 3 -16 -15 -6 -25 13 -29 31 -7 31 8 0 15 -2 15 -4z m170
-16 c0 -5 -8 -10 -17 -10 -15 0 -16 2 -3 10 19 12 20 12 20 0z m326 -5 c-3 -8
-1 -15 4 -15 6 0 10 -4 10 -8 0 -5 -7 -9 -15 -9 -15 0 -21 28 -8 40 11 12 15
8 9 -8z m-351 -17 c6 -4 2 -8 -7 -8 -10 0 -18 7 -18 17 0 9 3 12 8 7 4 -5 12
-12 17 -16z m319 13 c3 -5 0 -11 -7 -14 -8 -3 -14 1 -14 9 0 16 13 19 21 5z
m207 -20 c5 8 9 10 9 4 -1 -13 -29 -50 -34 -44 -2 2 -1 20 2 39 5 29 7 31 10
11 3 -19 6 -21 13 -10z m-673 -2 c2 -5 8 -7 13 -4 5 4 6 -1 3 -9 -3 -8 -12
-12 -20 -9 -8 3 -14 -1 -14 -10 0 -9 -4 -18 -9 -22 -6 -3 -6 6 -1 25 7 23 5
30 -5 30 -8 0 -16 4 -20 9 -3 6 6 8 22 5 16 -3 30 -9 31 -15z m155 -36 c-7 -2
-21 -2 -30 0 -10 3 -4 5 12 5 17 0 24 -2 18 -5z m535 -18 c-3 -3 -9 2 -12 12
-6 14 -5 15 5 6 7 -7 10 -15 7 -18z m-678 3 c0 -9 4 -8 10 2 8 13 10 12 10 -2
0 -22 -26 -24 -34 -3 -3 8 -1 15 4 15 6 0 10 -6 10 -12z m750 8 c0 -2 -8 -10
-17 -17 -16 -13 -17 -12 -4 4 13 16 21 21 21 13z"/>
<path d="M3462 2882 c-8 -5 3 -8 27 -8 21 1 37 4 34 9 -6 9 -45 9 -61 -1z"/>
<path d="M3385 2700 c-3 -5 -1 -10 4 -10 6 0 11 5 11 10 0 6 -2 10 -4 10 -3 0
-8 -4 -11 -10z"/>
<path d="M3332 2513 c-19 -37 -35 -156 -28 -216 6 -63 44 -137 69 -137 8 0 7
4 -3 10 -13 9 -13 11 -1 19 10 7 20 2 35 -17 40 -53 148 -146 188 -161 29 -11
174 -18 183 -9 8 8 -71 88 -86 88 -7 0 -9 -3 -5 -7 8 -9 -70 -42 -101 -42 -46
-2 -148 102 -158 158 -4 25 -12 41 -21 41 -13 0 -18 12 -15 33 1 4 -3 17 -9
27 -6 12 -7 20 -1 20 5 0 7 17 4 39 -3 23 -1 41 6 45 10 7 12 2 15 -34 1 -8
11 -15 22 -14 13 0 21 -7 22 -20 0 -10 5 -22 10 -25 5 -3 15 -16 21 -29 8 -15
18 -21 28 -18 8 4 22 -3 33 -16 30 -37 32 -15 3 30 -23 35 -29 39 -35 25 -5
-14 -7 -11 -7 10 -1 15 -17 51 -36 80 -19 28 -35 61 -35 72 0 13 -3 16 -8 8
-5 -8 -16 -1 -35 22 -31 39 -42 43 -55 18z"/>
<path d="M3582 2488 c-5 -7 -15 -29 -22 -49 -12 -34 -12 -39 11 -61 13 -13 29
-32 35 -42 19 -35 32 -29 36 19 3 38 0 45 -14 45 -10 0 -18 -6 -18 -12 0 -7
-5 -5 -11 5 -10 17 -8 39 7 90 6 20 -9 23 -24 5z"/>
<path d="M3668 2495 c-8 -8 2 -45 13 -45 4 0 11 5 15 11 7 12 -19 43 -28 34z"/>
<path d="M3540 2351 c0 -11 5 -23 10 -26 6 -3 10 3 10 14 0 11 -4 23 -10 26
-5 3 -10 -3 -10 -14z"/>
<path d="M3800 1990 c-9 -6 -10 -10 -3 -10 6 0 15 5 18 10 8 12 4 12 -15 0z"/>
<path d="M2080 2200 c0 -5 5 -10 10 -10 6 0 10 5 10 10 0 6 -4 10 -10 10 -5 0
-10 -4 -10 -10z"/>
<path d="M2216 2025 c4 -8 11 -15 16 -15 6 0 5 6 -2 15 -7 8 -14 15 -16 15 -2
0 -1 -7 2 -15z"/>
<path d="M2240 1990 c0 -5 5 -10 10 -10 6 0 10 -7 10 -17 0 -9 3 -14 6 -10 8
8 -5 47 -17 47 -5 0 -9 -4 -9 -10z"/>
<path d="M5290 1950 c0 -5 5 -10 10 -10 6 0 10 5 10 10 0 6 -4 10 -10 10 -5 0
-10 -4 -10 -10z"/>
<path d="M2071 1901 c-10 -6 -10 -10 -1 -16 13 -8 24 -1 19 14 -3 6 -10 7 -18
2z"/>
<path d="M2170 1830 c0 -5 5 -10 10 -10 6 0 10 5 10 10 0 6 -4 10 -10 10 -5 0
-10 -4 -10 -10z"/>
<path d="M1892 1160 c0 -14 2 -19 5 -12 2 6 2 18 0 25 -3 6 -5 1 -5 -13z"/>
<path d="M1910 1053 c0 -13 5 -23 10 -23 13 0 13 11 0 30 -8 12 -10 11 -10 -7z"/>
<path d="M1965 950 c-3 -5 -1 -10 4 -10 6 0 11 5 11 10 0 6 -2 10 -4 10 -3 0
-8 -4 -11 -10z"/>
<path d="M5270 1101 c0 -6 4 -13 10 -16 6 -3 7 1 4 9 -7 18 -14 21 -14 7z"/>
<path d="M5280 780 c0 -5 5 -10 11 -10 5 0 7 5 4 10 -3 6 -8 10 -11 10 -2 0
-4 -4 -4 -10z"/>
<path d="M5270 740 c0 -5 7 -10 15 -10 8 0 15 5 15 10 0 6 -7 10 -15 10 -8 0
-15 -4 -15 -10z"/>
<path d="M5265 710 c3 -5 8 -10 11 -10 2 0 4 5 4 10 0 6 -5 10 -11 10 -5 0 -7
-4 -4 -10z"/>
<path d="M5095 400 c4 -6 11 -8 16 -5 14 9 11 15 -7 15 -8 0 -12 -5 -9 -10z"/>
<path d="M5092 290 c0 -19 2 -27 5 -17 2 9 2 25 0 35 -3 9 -5 1 -5 -18z"/>
<path d="M5070 204 c0 -8 5 -12 10 -9 6 3 10 10 10 16 0 5 -4 9 -10 9 -5 0
-10 -7 -10 -16z"/>
<path d="M5719 756 c-11 -23 -11 -30 -1 -34 8 -2 12 -29 12 -83 0 -46 4 -79
10 -79 12 0 12 162 1 200 l-8 25 -14 -29z"/>
<path d="M5940 1060 c0 -5 5 -10 11 -10 5 0 7 5 4 10 -3 6 -8 10 -11 10 -2 0
-4 -4 -4 -10z"/>
<path d="M5042 880 c0 -14 2 -19 5 -12 2 6 2 18 0 25 -3 6 -5 1 -5 -13z"/>
<path d="M4112 3693 c-23 -15 -38 -31 -34 -35 5 -5 26 7 47 27 47 42 43 44
-13 8z"/>
<path d="M4785 3550 c-3 -5 -1 -10 4 -10 6 0 11 5 11 10 0 6 -2 10 -4 10 -3 0
-8 -4 -11 -10z"/>
<path d="M4990 3273 c-6 -31 -4 -73 3 -73 4 0 7 7 7 15 0 8 6 15 13 15 8 0 9
2 1 8 -7 4 -14 16 -17 27 -2 11 -6 14 -7 8z"/>
<path d="M5116 3024 c-5 -14 -4 -15 9 -4 17 14 19 20 6 20 -5 0 -12 -7 -15
-16z"/>
<path d="M5210 2775 c-12 -15 -5 -55 11 -55 5 0 9 16 9 35 0 39 -2 41 -20 20z"/>
<path d="M5230 2624 c0 -8 5 -12 10 -9 6 4 8 11 5 16 -9 14 -15 11 -15 -7z"/>
<path d="M5230 2330 c0 -5 5 -10 10 -10 6 0 10 5 10 10 0 6 -4 10 -10 10 -5 0
-10 -4 -10 -10z"/>
<path d="M5270 2276 c0 -8 5 -18 10 -21 6 -3 10 1 10 9 0 8 -4 18 -10 21 -5 3
-10 -1 -10 -9z"/>
<path d="M5411 1694 c0 -11 3 -14 6 -6 3 7 2 16 -1 19 -3 4 -6 -2 -5 -13z"/>
<path d="M5341 1658 c1 -18 1 -37 -1 -43 -8 -33 3 -33 20 0 24 47 24 45 4 45
-10 0 -14 6 -10 15 3 8 1 15 -5 15 -5 0 -9 -15 -8 -32z"/>
<path d="M5405 1661 c-3 -5 -1 -12 5 -16 5 -3 10 1 10 9 0 18 -6 21 -15 7z"/>
<path d="M5504 1354 c-14 -6 -6 -50 12 -65 13 -10 13 -8 4 16 -6 16 -9 34 -6
42 3 7 4 13 3 12 -1 0 -7 -3 -13 -5z"/>
<path d="M3165 995 c4 -11 8 -28 11 -39 5 -28 11 -30 19 -7 3 12 11 19 16 16
5 -3 6 1 2 10 -4 13 -8 14 -14 4 -9 -15 -10 -14 -28 16 l-13 20 7 -20z"/>
<path d="M3157 900 c-3 -11 -1 -20 4 -20 5 0 9 2 9 4 0 2 3 11 6 20 3 9 2 16
-4 16 -5 0 -12 -9 -15 -20z"/>
<path d="M2916 497 c3 -10 9 -15 12 -12 3 3 0 11 -7 18 -10 9 -11 8 -5 -6z"/>
<path d="M3068 393 c7 -3 16 -2 19 1 4 3 -2 6 -13 5 -11 0 -14 -3 -6 -6z"/>
<path d="M2910 370 c0 -5 5 -10 11 -10 5 0 7 5 4 10 -3 6 -8 10 -11 10 -2 0
-4 -4 -4 -10z"/>
<path d="M2970 330 c0 -5 5 -10 11 -10 5 0 7 5 4 10 -3 6 -8 10 -11 10 -2 0
-4 -4 -4 -10z"/>
<path d="M2930 250 c0 -5 -6 -10 -14 -10 -8 0 -18 -4 -21 -10 -3 -5 3 -10 14
-10 11 0 25 9 31 20 7 14 7 20 0 20 -5 0 -10 -4 -10 -10z"/>
<path d="M2870 239 c0 -5 5 -7 10 -4 6 3 10 8 10 11 0 2 -4 4 -10 4 -5 0 -10
-5 -10 -11z"/>
<path d="M2893 203 c9 -2 23 -2 30 0 6 3 -1 5 -18 5 -16 0 -22 -2 -12 -5z"/>
<path d="M2837 180 c-3 -12 0 -20 8 -20 8 0 11 8 8 20 -3 11 -7 20 -8 20 -1 0
-5 -9 -8 -20z"/>
<path d="M2888 183 c6 -2 18 -2 25 0 6 3 1 5 -13 5 -14 0 -19 -2 -12 -5z"/>
<path d="M2864 125 c-9 -37 -8 -45 4 -45 8 0 12 6 9 14 -3 7 -1 18 4 23 5 5 6
19 2 31 -7 19 -10 16 -19 -23z"/>
<path d="M2845 140 c3 -5 8 -10 11 -10 2 0 4 5 4 10 0 6 -5 10 -11 10 -5 0 -7
-4 -4 -10z"/>
<path d="M2820 20 c0 -5 5 -10 11 -10 5 0 7 5 4 10 -3 6 -8 10 -11 10 -2 0 -4
-4 -4 -10z"/>
</g>
</svg>
